inDegrees=yes
name=ik_S55_A05_T02
DataType=double
version=3
OpenSimVersion=4.3-2021-08-27-4bc7ad9
endheader
time	pelvis_tilt	pelvis_list	pelvis_rotation	pelvis_tx	pelvis_ty	pelvis_tz	hip_flexion_r	hip_adduction_r	hip_rotation_r	knee_angle_r	knee_angle_r_beta	ankle_angle_r	subtalar_angle_r	mtp_angle_r	hip_flexion_l	hip_adduction_l	hip_rotation_l	knee_angle_l	knee_angle_l_beta	ankle_angle_l	subtalar_angle_l	mtp_angle_l	lumbar_extension	lumbar_bending	lumbar_rotation	arm_flex_r	arm_add_r	arm_rot_r	elbow_flex_r	pro_sup_r	wrist_flex_r	wrist_dev_r	arm_flex_l	arm_add_l	arm_rot_l	elbow_flex_l	pro_sup_l	wrist_flex_l	wrist_dev_l
14.87999999999977	-2.945463147056425	-1.002895976834588	29.77374232516538	0	0.9399999999999999	0	31.02092045757825	-9.700882085687731	-8.835945037208123	36.60777266559555	0.6389261648362236	0	0	0	31.02092045757825	-9.700882085687731	-8.835945037208123	36.60777266559555	0.6389261648362236	0	0	0	-2.266491987476464	-0.9881786338653902	-1.596329770838855	60.3102473316786	11.36640427186197	19.29736743222783	55.2020348038048	105.8664688331371	0	0	22.06936743775035	-13.55972508905015	-1.664988870908134	58.42686938801245	141.0662889000899	0	0
14.89999999999977	-2.930403555986752	-1.011937662270481	29.79295999215835	0	0.9399999999999999	0	31.02570895986512	-9.701226936469292	-8.83680698532252	36.61220504175684	0.6390035243939249	0	0	0	31.02570895986512	-9.701226936469292	-8.83680698532252	36.61220504175684	0.6390035243939249	0	0	0	-2.25825025995858	-1.002610479270275	-1.607716711746015	60.25878877383557	11.35391342748773	19.41626926947563	55.18562356280296	105.6797664556724	0	0	22.05437010444241	-13.59276697922822	-1.660780134161003	58.44689567051588	141.0424453425645	0	0
14.91999999999977	-2.925559185132979	-1.027090766658422	29.80368006388256	0	0.9399999999999999	0	31.03472926007478	-9.702294659125306	-8.839007658204247	36.6197206010548	0.6391346956488032	0	0	0	31.03472926007478	-9.702294659125306	-8.839007658204247	36.6197206010548	0.6391346956488032	0	0	0	-2.261868313916011	-1.017570164315548	-1.607603456817956	60.21234092663978	11.33557724274779	19.47228694971274	55.17060068651388	105.6612632564971	0	1.077613842297402e-35	22.06502775913819	-13.60798037807733	-1.656887013752695	58.45774536870353	141.03418017627	0	1.077613842297402e-35
14.93999999999977	-2.927659159471814	-1.032125948257895	29.81043083905851	0	0.9399999999999999	0	31.03197361213604	-9.702963123028992	-8.839713710102529	36.61549395289185	0.6390609267220363	0	0	0	31.03197361213604	-9.702963123028992	-8.839713710102529	36.61549395289185	0.6390609267220363	0	0	0	-2.26593951848994	-1.02132134956438	-1.607877305150573	60.13809165890372	11.33143488442579	19.4905658485666	55.11784078029042	105.6737934593799	0	0	22.06597819326531	-13.60489671136239	-1.657449012600351	58.45917586948043	141.034423389494	0	0
14.95999999999977	-2.927378980439847	-1.033927721693654	29.81569213223006	0	0.9399999999999999	0	31.01468160412248	-9.702780450658212	-8.838064997607141	36.5975170119244	0.6387471699127176	0	0	0	31.01468160412248	-9.702780450658212	-8.838064997607141	36.5975170119244	0.6387471699127176	0	0	0	-2.265760093924979	-1.024683969091745	-1.608025980403464	60.05859311677472	11.33571669959916	19.47633257571375	55.02001509923402	105.7125862757159	0	0	22.06333699940139	-13.58786330991362	-1.68191108035971	58.45016508722642	141.0768878138996	0	0
14.97999999999977	-2.926044641841886	-1.032254047915993	29.80688823776532	0	0.9399999999999999	0	30.9973037539916	-9.702255887713036	-8.835929286497469	36.5801421863822	0.6384439220000466	0	0	0	30.9973037539916	-9.702255887713036	-8.835929286497469	36.5801421863822	0.6384439220000466	0	0	0	-2.262993930849257	-1.025487733186249	-1.607547121812221	59.97542230897955	11.36567173129694	19.44906395758134	54.85962298418225	105.7935678458786	0	0	22.04292037987585	-13.58089585391751	-1.702133022152979	58.45775927285969	141.1139430896621	0	0
14.99999999999977	-2.91202906284671	-1.026590293202874	29.80295251504279	0	0.9399999999999999	0	30.99171406903743	-9.702458634168634	-8.835752817192219	36.57387651772324	0.6383345654521088	0	0	0	30.99171406903743	-9.702458634168634	-8.835752817192219	36.57387651772324	0.6383345654521088	0	0	0	-2.247697458204243	-1.028350960278408	-1.603447325162526	59.85245811667122	11.39910608559365	19.4605888686389	54.6027392559831	106.0321699656383	0	0	22.0131899247437	-13.58079813679633	-1.695853583226428	58.49529406223636	141.0506812937566	0	0
